<svg width="2410" height="472" viewBox="0 0 2410 472" fill="none" xmlns="http://www.w3.org/2000/svg">
<g clip-path="url(#clip0_7880_26151)">
<path d="M1008.74 145.086H1008.24C999.009 123.564 972.334 100.477 928.221 100.477C856.44 100.477 805.152 150.734 805.152 234.84C805.152 318.947 856.936 370.234 928.717 370.234C974.357 370.234 997.94 347.681 1008.21 322.572H1008.7V354.36C1008.7 399.504 985.614 421.026 944.095 421.026C909.216 421.026 886.167 408.7 880.024 380.004H815.418C822.592 432.322 870.827 471.284 945.164 471.284C1015.42 471.284 1077.96 435.871 1077.96 345.125V107.651H1008.78V145.086H1008.74ZM943.065 318.45C895.364 318.45 871.247 278.954 871.247 235.375C871.247 191.795 895.86 152.833 943.065 152.833C990.27 152.833 1014.85 197.443 1014.85 235.375C1014.85 273.306 995.345 318.45 943.065 318.45Z" fill="#7FC8FF"/>
<path d="M497.921 212.326C497.921 147.185 467.164 99.4844 384.05 99.4844C314.292 99.4844 277.963 145.201 270.255 188.742H332.304C338.982 164.129 358.482 148.75 384.622 148.75C414.845 148.75 433.315 161.038 433.315 182.064C433.315 204.617 416.906 209.769 382.561 214.882C345.622 220.492 258.463 227.666 258.463 300.515C258.463 345.125 293.342 380.004 351.27 380.004C401.527 380.004 423.584 353.329 434.345 332.341H434.88V345.659C434.88 354.36 435.414 364.129 436.94 372.829H503.073C499.448 355.886 497.959 328.716 497.959 308.223V212.326H497.921ZM434.345 249.799C434.345 311.353 403.092 331.311 369.243 331.311C339.516 331.311 324.099 317.458 324.099 297.462C324.099 277.466 340.012 266.705 375.387 259.492C414.349 251.822 428.202 240.03 434.345 227.208V249.761V249.799Z" fill="#7FC8FF"/>
<path d="M683.573 100.516C642.551 100.516 619.005 122.534 604.085 153.33V107.69H539.479V372.83H605.611V253.845C605.611 189.239 629.729 157.947 665.103 157.947C703.073 157.947 713.3 188.209 713.3 226.675V372.83H778.937V210.762C778.937 145.66 752.263 100.516 683.535 100.516H683.573Z" fill="#7FC8FF"/>
<path d="M1299.72 58.4622C1349.44 58.4622 1383.29 78.4584 1402.79 121.542H1470.48C1447.93 46.6705 1391.49 0 1299.72 0C1188.44 0 1113.03 79.0308 1113.03 190.269C1113.03 301.508 1187.9 379.508 1299.18 379.47C1389.97 379.47 1452.01 330.777 1470.48 257.928H1402.29C1387.41 296.89 1355.62 321.008 1299.72 321.008C1228.93 321.008 1181.76 265.637 1181.76 190.269C1181.76 114.902 1228.43 58.5003 1299.72 58.5003V58.4622Z" fill="#7FC8FF"/>
<path d="M2314.6 100.516C2273.58 100.516 2250.03 122.534 2235.11 153.33V107.69H2170.5V372.83H2236.64V253.845C2236.64 189.239 2260.75 157.947 2296.13 157.947C2334.06 157.947 2344.33 188.209 2344.33 226.675V372.83H2409.96V210.762C2409.96 145.66 2383.29 100.516 2314.56 100.516H2314.6Z" fill="#7FC8FF"/>
<path d="M2125.89 29.4609H2057.7V91.0141H2125.89V29.4609Z" fill="#7FC8FF"/>
<path d="M2058.73 153.598V372.793H2124.86V107.652H2104.64C2079.26 107.652 2058.73 128.221 2058.73 153.598Z" fill="#7FC8FF"/>
<path d="M1652.01 100.44C1610.99 100.44 1587.45 122.496 1572.53 152.758V6.64062H1507.92V372.716H1574.05V253.731C1574.05 189.125 1598.17 157.833 1633.54 157.833C1671.51 157.833 1681.74 188.095 1681.74 226.561V372.716H1747.38V210.648C1747.38 145.546 1720.7 100.401 1651.98 100.401L1652.01 100.44Z" fill="#7FC8FF"/>
<path d="M2015.65 212.326C2015.65 147.185 1984.89 99.4844 1901.78 99.4844C1832.02 99.4844 1795.69 145.201 1788.02 188.742H1850.07C1856.75 164.129 1876.25 148.75 1902.39 148.75C1932.61 148.75 1951.08 161.038 1951.08 182.064C1951.08 204.617 1934.67 209.769 1900.33 214.882C1863.39 220.492 1776.23 227.666 1776.23 300.515C1776.23 345.125 1811.11 380.004 1869.03 380.004C1919.29 380.004 1941.35 353.329 1952.11 332.341H1952.61V345.659C1952.61 354.36 1953.1 364.129 1954.67 372.829H2020.8C2017.21 355.886 2015.68 328.716 2015.68 308.223V212.326H2015.65ZM1952.03 249.799C1952.03 311.353 1920.78 331.311 1886.93 331.311C1857.2 331.311 1841.79 317.458 1841.79 297.462C1841.79 277.466 1857.7 266.705 1893.07 259.492C1932.04 251.822 1945.89 240.03 1952.03 227.208V249.761V249.799Z" fill="#7FC8FF"/>
<path d="M66.4378 251.212V6.64062H0V297.349H20.3015C45.7928 297.349 66.4378 276.704 66.4378 251.212Z" fill="#7FC8FF"/>
<path d="M237.779 314.102H0V372.831H237.779V314.102Z" fill="#7FC8FF"/>
</g>
<defs>
<clipPath id="clip0_7880_26151">
<rect width="2410" height="471.285" fill="white"/>
</clipPath>
</defs>
</svg>
