<svg width="126" height="23" viewBox="0.85 3.6 125.85 22.95" fill="none" xmlns="http://www.w3.org/2000/svg">
<path d="M14.5949 13.2465H10.5859C10.5575 12.9148 10.4817 12.6139 10.3585 12.3438C10.24 12.0737 10.0741 11.8415 9.8609 11.6472C9.65239 11.4482 9.39886 11.2965 9.10032 11.1923C8.80178 11.0833 8.46296 11.0288 8.08386 11.0288C7.42043 11.0288 6.85888 11.1899 6.39922 11.5121C5.9443 11.8344 5.59837 12.2964 5.36143 12.8982C5.12923 13.5001 5.01313 14.2227 5.01313 15.0662C5.01313 15.9571 5.1316 16.7035 5.36854 17.3053C5.61022 17.9024 5.95852 18.3526 6.41344 18.6558C6.86836 18.9544 7.41569 19.1037 8.05542 19.1037C8.42031 19.1037 8.74728 19.0586 9.03635 18.9686C9.32541 18.8738 9.57657 18.7388 9.78981 18.5634C10.0031 18.3881 10.176 18.1772 10.3087 17.9308C10.4461 17.6797 10.5385 17.3977 10.5859 17.0849L14.5949 17.1134C14.5475 17.7294 14.3746 18.3573 14.076 18.997C13.7775 19.632 13.3534 20.2196 12.8037 20.7599C12.2587 21.2953 11.5834 21.7266 10.7778 22.0535C9.97226 22.3805 9.03635 22.544 7.97013 22.544C6.63379 22.544 5.43488 22.2573 4.3734 21.6839C3.31665 21.1105 2.48026 20.267 1.86422 19.1534C1.25292 18.0398 0.947266 16.6774 0.947266 15.0662C0.947266 13.4456 1.26002 12.0808 1.88554 10.9719C2.51106 9.85831 3.35456 9.01718 4.41605 8.44853C5.47753 7.87514 6.66222 7.58844 7.97013 7.58844C8.88945 7.58844 9.73532 7.71402 10.5077 7.96517C11.2802 8.21633 11.9578 8.58358 12.5407 9.06694C13.1235 9.54556 13.5927 10.1355 13.9481 10.8369C14.3035 11.5382 14.5191 12.3414 14.5949 13.2465Z" fill="#120635"/>
<path d="M21.7049 22.544C20.5202 22.544 19.5061 22.3094 18.6626 21.8403C17.8191 21.3664 17.1722 20.7077 16.722 19.8642C16.2719 19.016 16.0468 18.0327 16.0468 16.9143C16.0468 15.796 16.2719 14.8151 16.722 13.9716C17.1722 13.1233 17.8191 12.4646 18.6626 11.9955C19.5061 11.5216 20.5202 11.2847 21.7049 11.2847C22.8896 11.2847 23.9037 11.5216 24.7472 11.9955C25.5907 12.4646 26.2375 13.1233 26.6877 13.9716C27.1379 14.8151 27.363 15.796 27.363 16.9143C27.363 18.0327 27.1379 19.016 26.6877 19.8642C26.2375 20.7077 25.5907 21.3664 24.7472 21.8403C23.9037 22.3094 22.8896 22.544 21.7049 22.544ZM21.7333 19.6439C22.065 19.6439 22.3517 19.5325 22.5934 19.3098C22.8351 19.0871 23.0222 18.7696 23.1549 18.3573C23.2876 17.945 23.354 17.4546 23.354 16.8859C23.354 16.3125 23.2876 15.8221 23.1549 15.4145C23.0222 15.0023 22.8351 14.6848 22.5934 14.462C22.3517 14.2393 22.065 14.1279 21.7333 14.1279C21.3826 14.1279 21.0817 14.2393 20.8306 14.462C20.5794 14.6848 20.3875 15.0023 20.2548 15.4145C20.1221 15.8221 20.0558 16.3125 20.0558 16.8859C20.0558 17.4546 20.1221 17.945 20.2548 18.3573C20.3875 18.7696 20.5794 19.0871 20.8306 19.3098C21.0817 19.5325 21.3826 19.6439 21.7333 19.6439Z" fill="#120635"/>
<path d="M28.9552 26.4393V11.4268H32.8505V13.3318H32.9358C33.0779 12.9622 33.2864 12.6234 33.5613 12.3154C33.8361 12.0026 34.1773 11.7538 34.5848 11.569C34.9924 11.3795 35.4663 11.2847 36.0065 11.2847C36.7268 11.2847 37.4115 11.4766 38.0607 11.8604C38.7147 12.2443 39.2454 12.8485 39.653 13.673C40.0652 14.4976 40.2714 15.5685 40.2714 16.8859C40.2714 18.1464 40.0747 19.1913 39.6814 20.0206C39.2928 20.8499 38.7715 21.4683 38.1176 21.8758C37.4684 22.2834 36.7552 22.4871 35.978 22.4871C35.4663 22.4871 35.009 22.4042 34.6062 22.2384C34.2081 22.0678 33.8669 21.8379 33.5826 21.5489C33.303 21.2551 33.0874 20.9233 32.9358 20.5537H32.8789V26.4393H28.9552ZM32.7936 16.8859C32.7936 17.4167 32.8623 17.8763 32.9997 18.2649C33.1419 18.6487 33.3409 18.9473 33.5968 19.1605C33.8574 19.369 34.1678 19.4733 34.528 19.4733C34.8881 19.4733 35.1938 19.3714 35.4449 19.1676C35.7008 18.9591 35.8951 18.663 36.0278 18.2791C36.1652 17.8905 36.2339 17.4261 36.2339 16.8859C36.2339 16.3457 36.1652 15.8837 36.0278 15.4998C35.8951 15.1112 35.7008 14.8151 35.4449 14.6113C35.1938 14.4028 34.8881 14.2985 34.528 14.2985C34.1678 14.2985 33.8574 14.4028 33.5968 14.6113C33.3409 14.8151 33.1419 15.1112 32.9997 15.4998C32.8623 15.8837 32.7936 16.3457 32.7936 16.8859Z" fill="#120635"/>
<path d="M41.9151 22.345V11.4268H45.8388V22.345H41.9151ZM43.877 10.2895C43.3462 10.2895 42.8913 10.1142 42.5122 9.76354C42.1331 9.41287 41.9436 8.99112 41.9436 8.49829C41.9436 8.00545 42.1331 7.5837 42.5122 7.23303C42.8913 6.88237 43.3462 6.70703 43.877 6.70703C44.4125 6.70703 44.8674 6.88237 45.2418 7.23303C45.6209 7.5837 45.8104 8.00545 45.8104 8.49829C45.8104 8.99112 45.6209 9.41287 45.2418 9.76354C44.8674 10.1142 44.4125 10.2895 43.877 10.2895Z" fill="#120635"/>
<path d="M51.7617 7.78747V22.345H47.838V7.78747H51.7617Z" fill="#120635"/>
<path d="M59.0209 22.544C57.8362 22.544 56.8221 22.3094 55.9786 21.8403C55.1351 21.3664 54.4883 20.7077 54.0381 19.8642C53.5879 19.016 53.3628 18.0327 53.3628 16.9143C53.3628 15.796 53.5879 14.8151 54.0381 13.9716C54.4883 13.1233 55.1351 12.4646 55.9786 11.9955C56.8221 11.5216 57.8362 11.2847 59.0209 11.2847C60.2056 11.2847 61.2197 11.5216 62.0632 11.9955C62.9067 12.4646 63.5536 13.1233 64.0037 13.9716C64.4539 14.8151 64.679 15.796 64.679 16.9143C64.679 18.0327 64.4539 19.016 64.0037 19.8642C63.5536 20.7077 62.9067 21.3664 62.0632 21.8403C61.2197 22.3094 60.2056 22.544 59.0209 22.544ZM59.0493 19.6439C59.3811 19.6439 59.6678 19.5325 59.9094 19.3098C60.1511 19.0871 60.3383 18.7696 60.471 18.3573C60.6037 17.945 60.67 17.4546 60.67 16.8859C60.67 16.3125 60.6037 15.8221 60.471 15.4145C60.3383 15.0023 60.1511 14.6848 59.9094 14.462C59.6678 14.2393 59.3811 14.1279 59.0493 14.1279C58.6987 14.1279 58.3978 14.2393 58.1466 14.462C57.8955 14.6848 57.7035 15.0023 57.5709 15.4145C57.4382 15.8221 57.3718 16.3125 57.3718 16.8859C57.3718 17.4546 57.4382 17.945 57.5709 18.3573C57.7035 18.7696 57.8955 19.0871 58.1466 19.3098C58.3978 19.5325 58.6987 19.6439 59.0493 19.6439Z" fill="#120635"/>
<path d="M72.7823 11.4268V14.2701H65.5889V11.4268H72.7823ZM66.982 8.81105H70.9058V18.8335C70.9058 18.9852 70.9318 19.1131 70.9839 19.2174C71.0361 19.3169 71.1166 19.3927 71.2256 19.4448C71.3346 19.4922 71.4744 19.5159 71.645 19.5159C71.7635 19.5159 71.9009 19.5017 72.0573 19.4733C72.2184 19.4448 72.3369 19.4212 72.4127 19.4022L72.9813 22.1602C72.806 22.2123 72.5548 22.2763 72.2279 22.3521C71.9056 22.4279 71.5218 22.4777 71.0764 22.5014C70.176 22.5487 69.4202 22.4563 68.8088 22.2241C68.1975 21.9872 67.7379 21.6152 67.4299 21.1082C67.1218 20.6011 66.9726 19.9661 66.982 19.2032V8.81105Z" fill="#120635"/>
<path d="M74.5611 22.345V7.78747H78.5133V13.673H78.7123L83.0909 7.78747H87.697L82.7782 14.2701L87.8107 22.345H83.0909L79.8212 16.8859L78.5133 18.5919V22.345H74.5611Z" fill="#120635"/>
<path d="M89.6109 22.345V11.4268H93.5346V22.345H89.6109ZM91.5727 10.2895C91.042 10.2895 90.5871 10.1142 90.208 9.76354C89.8288 9.41287 89.6393 8.99112 89.6393 8.49829C89.6393 8.00545 89.8288 7.5837 90.208 7.23303C90.5871 6.88237 91.042 6.70703 91.5727 6.70703C92.1082 6.70703 92.5631 6.88237 92.9375 7.23303C93.3166 7.5837 93.5061 8.00545 93.5061 8.49829C93.5061 8.99112 93.3166 9.41287 92.9375 9.76354C92.5631 10.1142 92.1082 10.2895 91.5727 10.2895Z" fill="#120635"/>
<path d="M102.045 11.4268V14.2701H94.8514V11.4268H102.045ZM96.2446 8.81105H100.168V18.8335C100.168 18.9852 100.194 19.1131 100.246 19.2174C100.299 19.3169 100.379 19.3927 100.488 19.4448C100.597 19.4922 100.737 19.5159 100.908 19.5159C101.026 19.5159 101.163 19.5017 101.32 19.4733C101.481 19.4448 101.599 19.4212 101.675 19.4022L102.244 22.1602C102.069 22.2123 101.817 22.2763 101.49 22.3521C101.168 22.4279 100.784 22.4777 100.339 22.5014C99.4385 22.5487 98.6827 22.4563 98.0714 22.2241C97.4601 21.9872 97.0004 21.6152 96.6924 21.1082C96.3844 20.6011 96.2351 19.9661 96.2446 19.2032V8.81105Z" fill="#120635"/>
<path d="M112.359 10.985C114.341 8.39245 115.987 5.82884 116.619 3.75859C116.637 3.70226 116.703 3.67833 116.752 3.71085C118.952 5.16839 122.962 6.12778 126.507 6.1503C126.569 6.15069 126.611 6.21085 126.588 6.26774C125.41 9.25883 123.969 14.6184 123.914 20.7386C123.913 20.8296 123.786 20.8622 123.741 20.7832C121.722 17.2517 115.259 12.2893 112.393 11.118C112.34 11.0962 112.324 11.0308 112.359 10.985Z" fill="url(#paint0_linear_5229_1726)"/>
<path d="M119.046 9.39977C115.949 10.3806 113.118 10.9259 112.442 11.0499C112.399 11.0577 112.39 11.1173 112.43 11.1341C115.319 12.3347 121.75 17.2826 123.75 20.7998C123.754 20.8075 123.763 20.8103 123.771 20.8068C123.78 20.803 123.784 20.7931 123.78 20.7844L119.046 9.39977Z" fill="url(#paint1_linear_5229_1726)"/>
<path d="M116.761 3.70451C119.413 5.15112 122.478 5.80083 126.544 6.14318C126.57 6.14537 126.578 6.17959 126.555 6.19148C126.035 6.45874 123.056 7.97464 120.844 8.78652C120.251 9.00404 119.655 9.20583 119.068 9.39201C119.055 9.39607 119.041 9.38966 119.036 9.37725L116.7 3.7593C116.684 3.72147 116.725 3.68489 116.761 3.70451Z" fill="url(#paint2_linear_5229_1726)"/>
<path d="M116.713 3.78906L123.829 20.7646" stroke="#513C9F" stroke-width="0.17284" stroke-linecap="round"/>
<path d="M112.443 11.0463C112.443 11.0463 116.373 10.3409 120.067 9.06673C123.761 7.79258 126.511 6.23242 126.511 6.23242" stroke="#513C9F" stroke-width="0.17284" stroke-linecap="round"/>
<path d="M117.69 5.93555L115.055 14.7072M115.055 14.7072H121.32M115.055 14.7072L105.156 26.365" stroke="#ABABAB" stroke-width="0.302474" stroke-linecap="round"/>
<path d="M112.024 23.9635L110.857 24.1275C111.462 25.7276 112.703 26.4264 114.185 26.4264C117.814 26.4264 116.706 22.3215 118.81 22.3215C120.335 22.3215 119.715 25.6487 122.999 25.6487C125.003 25.6487 125.202 23.6299 124.861 22.7613C124.858 22.7561 124.856 22.7512 124.853 22.7464L124.316 21.9241C124.281 21.8694 124.196 21.8901 124.19 21.955L124.09 22.9517C124.083 23.021 124.085 23.0902 124.093 23.1593C124.176 23.8479 124.229 25.519 122.999 25.519C121.701 25.519 121.389 22.2351 118.81 22.2351C115.783 22.2351 116.172 26.2968 114.314 26.2968C113.089 26.2968 112.154 24.9141 112.024 23.9635Z" fill="url(#paint3_linear_5229_1726)"/>
<defs>
<linearGradient id="paint0_linear_5229_1726" x1="121.536" y1="5.02725" x2="118.079" y2="14.5334" gradientUnits="userSpaceOnUse">
<stop stop-color="#6430AB"/>
<stop offset="1" stop-color="#AA89D8"/>
</linearGradient>
<linearGradient id="paint1_linear_5229_1726" x1="118.857" y1="10.3859" x2="114.406" y2="18.9847" gradientUnits="userSpaceOnUse">
<stop stop-color="#005DBB"/>
<stop offset="1" stop-color="#3D92E8"/>
</linearGradient>
<linearGradient id="paint2_linear_5229_1726" x1="120.844" y1="5.02725" x2="119.504" y2="9.21862" gradientUnits="userSpaceOnUse">
<stop stop-color="#1B70C4"/>
<stop offset="1" stop-color="#54A4F2"/>
</linearGradient>
<linearGradient id="paint3_linear_5229_1726" x1="110.857" y1="24.2443" x2="124.996" y2="24.2443" gradientUnits="userSpaceOnUse">
<stop stop-color="#4497EA"/>
<stop offset="0.254755" stop-color="#1463B2"/>
<stop offset="0.498725" stop-color="#0A437D"/>
<stop offset="0.666667" stop-color="#2476C8"/>
<stop offset="0.972542" stop-color="#0C549A"/>
</linearGradient>
</defs>
</svg>
